# xmcd
# Track frame offsets:
# 150
# 12439
# 28618
# 40691
# 54958
# 73062
# 87129
# 105864
# 121346
# 133817
# 146649
# 159860
# 173201
# 193604
# 207950
#
# Disc length: 3034 seconds
# Revision: 0
# Processed by: cddbd v1.5.1PL0 Copyright (c) Steve Scherf et al.
# Submitted via: VisiTrax 2.9.10.228 - For more info visit www.synapsa.com
#
DISCID=c30bd80f
DTITLE=Various Artist - CB60302
DYEAR=1900
DGENRE=Karaoke
TTITLE0=Conlee, John - Busted
TTITLE1=Sheppard, T.G. - Do You Wanna Go To Heaven
TTITLE2=Tucker, Tanya - Pecos Promenade
TTITLE3=Bellamy Brothers, The - Do You Love As Good As You Look
TTITLE4=Milsap, Ronnie - Any Day Now
TTITLE5=Mandrell, Barbara - One Of A Kind, Pair Of Fools
TTITLE6=Twitty, Conway - Somebody's Needin' Somebody
TTITLE7=Conley, Earl Thomas - Fire And Smoke
TTITLE8=Sylvia - Drifter
TTITLE9=Watson, Gene - Fourteen Carat Mind
TTITLE10=Conlee, John - Common Man
TTITLE11=Gayle, Crystal - Baby What About You
TTITLE12=Rogers, Kenny - She Believes In Me
TTITLE13=Gatlin, Larry - Houston (Means I'm One Day Closer To
TTITLE14=Newton, Juice - You Make Me Want To Make You Mine
EXTD=
EXTT0=
EXTT1=
EXTT2=
EXTT3=
EXTT4=
EXTT5=
EXTT6=
EXTT7=
EXTT8=
EXTT9=
EXTT10=
EXTT11=
EXTT12=
EXTT13=
EXTT14=
PLAYORDER=
